Coordinates
version=1
nRows=14
nColumns=24
inDegrees=yes

Units are S.I. units (second, meters, Newtons, ...)
Angles are in degrees.

endheader
time	pelvis_tilt	pelvis_list	pelvis_rotation	pelvis_tx	pelvis_ty	pelvis_tz	hip_flexion_r	hip_adduction_r	hip_rotation_r	knee_angle_r	ankle_angle_r	subtalar_angle_r	mtp_angle_r	hip_flexion_l	hip_adduction_l	hip_rotation_l	knee_angle_l	ankle_angle_l	subtalar_angle_l	mtp_angle_l	lumbar_extension	lumbar_bending	lumbar_rotation
      0.52500000	     -4.04232102	      1.57693574	      6.55124071	     -0.78344766	      1.02054694	      0.31450318	     23.87475616	      0.16103997	     -9.49733508	      3.96285103	      4.78985894	      2.77552683	      6.25325724	     -8.66752103	      6.37013016	      8.57618895	    -10.75908003	      9.75696372	     -4.17668914	     -2.18128648	     -2.97101372	     -5.05261099	     -5.33330200
      0.52916667	     -3.98772230	      1.53416186	      6.59032523	     -0.77744164	      1.02005119	      0.31457730	     23.78931938	      0.31513010	     -9.40651993	      3.69523432	      4.95629119	      2.57675271	      6.27529922	     -8.76693523	      6.29497411	      8.56418993	    -11.39025121	      9.84589560	     -4.06674901	     -2.16597713	     -2.94721486	     -4.98664977	     -5.33535254
      0.53333333	     -3.95666526	      1.47032144	      6.63247491	     -0.77140552	      1.01952015	      0.31467966	     23.70581141	      0.48919014	     -9.19660616	      3.43065091	      4.93687609	      2.16177675	      6.35980421	     -8.76464468	      6.18009204	      8.30016242	    -12.16850656	     10.03500375	     -3.53858383	     -2.08039823	     -2.91420079	     -4.94373541	     -5.35161520
      0.53750000	     -3.90153695	      1.40663393	      6.66799181	     -0.76534325	      1.01903794	      0.31474788	     23.61798472	      0.65821988	     -9.00570738	      3.06717750	      4.92408050	      1.74255672	      6.47828823	     -8.79927104	      6.07569232	      8.14576400	    -12.92448964	     10.12968258	     -3.23357545	     -1.95318588	     -2.89154586	     -4.86808713	     -5.34856765
      0.54166667	     -3.82313840	      1.33461681	      6.70665577	     -0.75924122	      1.01861859	      0.31479824	     23.50167557	      0.83266586	     -8.78879592	      2.66844335	      4.82880137	      1.24172594	      6.63671470	     -8.84103244	      5.95856551	      7.97691219	    -13.71213080	     10.19433164	     -2.92020106	     -1.77264039	     -2.89251302	     -4.77427749	     -5.35550803
      0.54583333	     -3.76696523	      1.25155177	      6.73843882	     -0.75311911	      1.01816092	      0.31485613	     23.41918526	      1.01528162	     -8.54623120	      2.22058684	      4.66712603	      0.66636961	      6.82116600	     -8.83557698	      5.83387476	      7.79387146	    -14.54380269	     10.23075490	     -2.61368220	     -1.55005384	     -2.86120045	     -4.67464815	     -5.35878672
      0.55000000	     -3.60385464	      1.15531718	      6.73676235	     -0.74693355	      1.01786877	      0.31493234	     23.20816061	      1.23209195	     -8.25637641	      1.78235710	      4.37397759	      0.05575805	      8.11580746	     -8.93882884	      5.68286653	      7.53706528	    -15.37545357	     10.19305786	     -2.34534727	      0.06409999	     -2.96857205	     -4.51277820	     -5.28935208
      0.55416667	     -3.63632334	      1.07303433	      6.81113883	     -0.74076731	      1.01733793	      0.31489899	     23.23120639	      1.37685003	     -8.04594569	      1.25228342	      4.13311843	     -0.56886017	      8.20280724	     -8.78666475	      5.56975183	      7.41079287	    -16.29914533	     10.09244519	     -2.09290010	      0.19513748	     -2.79979079	     -4.42294365	     -5.37728350
      0.55833333	     -3.51493355	      0.96756309	      6.83177023	     -0.73453431	      1.01701767	      0.31495914	     23.05808320	      1.58946080	     -7.71328761	      0.78973991	      3.68511640	     -1.38072860	      8.33512332	     -8.78833770	      5.40089830	      7.11107092	    -17.23585866	     10.01286753	     -1.70318556	      0.41110283	     -2.83507959	     -4.26944479	     -5.37031486
      0.56250000	     -3.41810168	      0.87888946	      6.85830336	     -0.72831564	      1.01668031	      0.31501998	     22.92663108	      1.77641170	     -7.39289139	      0.28401271	      3.19576652	     -2.22771639	      8.52970071	     -8.73497382	      5.25242702	      6.82323162	    -18.22212152	      9.92597701	     -1.35219602	      0.74426650	     -2.84008318	     -4.16947283	     -5.36590015
      0.56666667	     -3.33102133	      0.77530597	      6.88687384	     -0.72205617	      1.01635833	      0.31507293	     22.79707255	      1.97487887	     -7.06488364	     -0.21087379	      2.62418482	     -3.08547414	      8.75529981	     -8.64823751	      5.08258993	      6.51285828	    -19.24205497	      9.73740099	     -1.00446690	      1.15443208	     -2.82471192	     -4.02612080	     -5.36239639
      0.57083333	     -3.24042422	      0.66685080	      6.90966001	     -0.71577308	      1.01604935	      0.31513525	     22.66388115	      2.17843855	     -6.74015491	     -0.70690733	      1.98678056	     -3.94986516	      8.99068358	     -8.54294648	      4.90191342	      6.17690713	    -20.29831794	      9.50072496	     -0.64594161	      1.61059130	     -2.80816920	     -3.87722503	     -5.35735154
      0.57500000	     -3.12761874	      0.55645986	      6.93450008	     -0.70948185	      1.01581359	      0.31521028	     22.50296924	      2.38523435	     -6.41981285	     -1.19697885	      1.28833173	     -4.83056047	      9.24797816	     -8.43162707	      4.70309660	      5.79194202	    -21.38918399	      9.19686251	     -0.25936985	      2.14611109	     -2.81965989	     -3.71875315	     -5.34718357
      0.57916667	     -3.02282760	      0.46017487	      6.95468356	     -0.70317559	      1.01559580	      0.31527932	     22.35938283	      2.57035856	     -6.14803543	     -1.70492884	      0.53507315	     -5.63136784	     11.91194381	     -8.31203423	      4.52393990	      5.46216604	    -22.45278646	      8.58005244	     -0.11602864	      7.90074082	     -2.81600895	     -3.58732692	     -5.31187156
